<svg width="410" height="148" viewBox="0 0 410 148" fill="none" xmlns="http://www.w3.org/2000/svg">
<g clip-path="url(#clip0_9_36)">
<path d="M169.669 64.7787V54.9347C169.669 45.4262 165.525 41.0636 158.329 41.0636C154.101 41.0636 150.517 42.378 147.465 47.8034C145.813 43.217 142.257 41.0636 137.301 41.0636C132.736 41.0636 129.573 42.9373 127.052 46.4051L127.248 42.5178C127.248 42.1822 126.997 41.9026 126.633 41.9026H117.785C117.448 41.9026 117.168 42.1543 117.168 42.5178L117.225 64.7787L117.029 76.9999C117.029 77.3635 117.28 77.6154 117.644 77.6154H127.137C127.472 77.6154 127.753 77.3635 127.753 76.9999L127.557 64.7787V59.8008C127.557 52.5017 130.945 48.6983 133.856 48.6983C136.769 48.6983 138.449 50.7678 138.449 55.0745V64.7787L138.253 76.9999C138.253 77.3635 138.505 77.6154 138.869 77.6154H148.221C148.557 77.6154 148.837 77.3635 148.837 76.9999L148.641 64.7787V59.8008C148.641 52.5017 152.085 48.6983 154.941 48.6983C157.769 48.6983 159.505 50.7678 159.505 55.0745V64.7787L159.309 76.9999C159.309 77.3635 159.561 77.6154 159.925 77.6154H169.277C169.613 77.6154 169.893 77.3635 169.893 76.9999L169.669 64.7787Z" fill="black"/>
<path d="M208.14 42.5196C208.14 42.1561 207.889 41.9044 207.524 41.9044H198.256C197.892 41.9044 197.64 42.1561 197.64 42.5196L197.836 45.7357C195.428 42.8272 191.928 41.2052 187.532 41.2052C177.844 41.2052 171.88 49.5391 171.88 59.8585C171.88 70.206 177.228 78.3163 187.336 78.3163C191.844 78.3163 195.372 76.4983 197.836 73.45L197.696 76.9737C197.696 77.3373 197.948 77.5888 198.312 77.5888H207.497C207.832 77.5888 208.112 77.3373 208.112 76.9737L207.916 59.7746L208.112 42.5196H208.14ZM190.22 71.3805C185.236 71.4365 182.492 67.3534 182.492 59.2992C182.492 51.9442 185.18 48.001 190.472 48.1408C195.456 48.1967 198.144 52.3637 198.088 59.9984C197.976 67.5492 195.288 71.3805 190.248 71.3805H190.22Z" fill="black"/>
<path d="M221.218 51.663C221.218 48.5867 223.346 47.3842 226.762 47.3842C230.991 47.3842 232.922 49.2579 233.482 52.3062C233.538 52.6698 233.819 52.9215 234.183 52.9215H242.611C242.975 52.9215 243.227 52.6698 243.171 52.3062C242.554 44.8114 236.255 41.0918 226.902 41.0918C217.55 41.0918 211.334 45.063 211.334 52.474C211.334 67.4638 234.658 60.8638 234.658 67.6596C234.658 70.4282 232.446 72.0222 228.359 72.0222C223.514 72.0222 220.882 70.2604 220.63 66.2892C220.63 65.9257 220.378 65.6739 220.014 65.6739H211.166C210.83 65.6739 210.55 65.9257 210.55 66.2892C210.886 74.2875 217.522 78.5106 227.91 78.5106C237.514 78.5106 244.571 74.2875 244.571 66.7926C244.598 51.5791 221.274 58.5147 221.274 51.6909L221.218 51.663Z" fill="black"/>
<path d="M267.925 48.5845V42.4879C267.925 42.1523 267.672 41.8727 267.308 41.8727H245.104C244.768 41.8727 244.488 42.1243 244.488 42.4879V48.5845C244.488 48.948 244.74 49.1998 245.104 49.1998H249.108L249.052 67.098C249.052 75.2082 254.793 78.2563 260.813 78.2563C263.024 78.2563 265.321 77.7531 267.336 77.0539C267.589 76.9141 267.896 76.5505 267.896 76.2149V70.6777C267.896 70.426 267.644 70.1183 267.28 70.1742C266.273 70.5378 264.929 70.7895 263.277 70.7895C261.009 70.7895 259.468 69.8387 259.468 66.7624L259.412 49.1438H267.393C267.729 49.1718 267.981 48.9201 267.981 48.5565L267.925 48.5845Z" fill="black"/>
<path d="M286.378 40.9502C275.01 40.9502 268.234 48.4451 268.234 59.7993C268.234 71.1814 274.646 78.4526 286.574 78.4526C296.514 78.4526 302.786 72.6077 303.654 66.0916C303.711 65.7281 303.458 65.4764 303.094 65.4764H294.386C294.05 65.4764 293.686 65.7281 293.63 66.0916C292.678 69.923 290.186 71.517 286.714 71.517C281.73 71.517 279.098 68.5527 278.678 61.8128H304.13C304.467 61.8128 304.746 61.5611 304.746 61.1976C304.55 48.7527 298.026 40.9502 286.322 40.9502H286.378ZM278.958 55.2408C279.77 50.3188 282.29 47.8018 286.434 47.8018C291.026 47.8018 293.154 51.4095 293.546 55.2408H278.958Z" fill="black"/>
<path d="M331.568 41.7056C331.064 41.6497 330.504 41.5658 330 41.5658C324.792 41.5658 320.032 43.6353 317.26 47.8861L317.512 42.4607C317.512 42.0972 317.26 41.8455 316.896 41.8455H307.768C307.404 41.8455 307.152 42.0972 307.152 42.4607L307.404 59.6598L307.152 76.9428C307.152 77.3064 307.404 77.5583 307.768 77.5583H316.896C317.26 77.5583 317.512 77.3064 317.512 76.9428V61.7013C317.456 53.5073 322.916 49.4242 330.252 49.4242C330.672 49.4242 331.148 49.4242 331.568 49.4802C331.904 49.4802 332.184 49.2844 332.184 48.9209V42.5167C332.184 42.1531 331.876 41.8175 331.568 41.7336V41.7056Z" fill="black"/>
<path d="M343.185 51.663C343.185 48.5867 345.313 47.3842 348.729 47.3842C352.957 47.3842 354.889 49.2579 355.449 52.3062C355.505 52.6698 355.813 52.9215 356.149 52.9215H364.577C364.941 52.9215 365.193 52.6698 365.137 52.3062C364.521 44.8114 358.221 41.0918 348.869 41.0918C339.517 41.0918 333.301 45.063 333.301 52.474C333.301 67.4638 356.625 60.8638 356.625 67.6596C356.625 70.4282 354.413 72.0222 350.325 72.0222C345.481 72.0222 342.849 70.2604 342.597 66.2892C342.597 65.9257 342.345 65.6739 341.981 65.6739H333.133C332.797 65.6739 332.517 65.9257 332.517 66.2892C332.881 74.2875 339.489 78.5106 349.877 78.5106C359.481 78.5106 366.537 74.2875 366.537 66.7926C366.565 51.5791 343.241 58.5147 343.241 51.6909L343.185 51.663Z" fill="black"/>
<path d="M378.328 29.0336H369.536C369.2 29.0336 368.92 29.2853 368.92 29.6488V38.6539L366.791 46.4005C366.736 46.764 366.987 47.0157 367.296 47.0157H372.084C372.448 47.0157 372.84 46.8199 373.036 46.5123L378.636 39.0174C378.832 38.7658 379 38.2624 379 37.8988V29.6209C379 29.2573 378.748 29.0056 378.384 29.0056L378.328 29.0336Z" fill="#070707"/>
<path d="M129.324 122.418C121.792 122.418 116.864 117.272 116.864 108.546V101.052L116.724 86.4811C116.724 86.1176 116.976 85.8662 117.34 85.8662H126.608C126.944 85.8662 127.224 86.1176 127.224 86.4811L127.028 101.052V108.407C127.028 112.294 129.38 114.783 132.488 114.783C136.212 114.783 140.216 111.315 140.216 103.68V101.052L140.076 86.4811C140.076 86.1176 140.328 85.8662 140.692 85.8662H150.1C150.437 85.8662 150.716 86.1176 150.716 86.4811L150.52 102.981L150.577 120.935C150.577 121.271 150.324 121.551 149.96 121.551H141.168C140.833 121.551 140.552 121.299 140.552 120.935L140.748 117.048C138.312 120.18 134.224 122.389 129.24 122.389L129.324 122.418Z" fill="#040404"/>
<path d="M154.633 121.576C154.297 121.576 154.017 121.324 154.017 120.96L154.213 104.461L154.157 86.5062C154.157 86.1427 154.409 85.8913 154.773 85.8913H163.565C163.901 85.8913 164.181 86.1427 164.181 86.5062L163.985 90.3938C166.421 87.2613 170.509 85.0521 175.493 85.0521C183.025 85.0521 187.87 90.1981 187.87 98.9232V106.418L188.066 120.989C188.066 121.352 187.813 121.604 187.449 121.604H178.153C177.817 121.604 177.538 121.352 177.538 120.989L177.677 106.418V99.0633C177.677 95.1757 175.409 92.6867 172.273 92.6867C168.549 92.6867 164.545 96.1547 164.545 103.789V106.418L164.685 120.989C164.685 121.352 164.433 121.604 164.069 121.604H154.689L154.633 121.576Z" fill="#040404"/>
<path d="M191.793 121.579C191.457 121.579 191.177 121.327 191.177 120.963L191.373 103.764L191.177 86.4811C191.177 86.1176 191.429 85.8662 191.793 85.8662H201.145C201.509 85.8662 201.761 86.1176 201.761 86.4811L201.565 103.764L201.761 120.963C201.761 121.299 201.509 121.579 201.145 121.579H191.793Z" fill="#040404"/>
<path d="M222.728 122.473C211.108 122.473 204.388 115.174 204.388 103.82C204.388 92.4652 211.108 84.9424 222.728 84.9424C234.348 84.9424 240.928 92.2419 240.928 103.596C240.928 114.95 234.348 122.473 222.728 122.473ZM222.728 115.538C227.88 115.538 230.26 112.013 230.26 103.82C230.26 95.6258 227.768 91.9059 222.644 91.9059C217.38 91.962 214.972 95.8772 214.972 103.931C214.972 111.986 217.548 115.566 222.7 115.566L222.728 115.538Z" fill="#040404"/>
<path d="M244.095 121.576C243.76 121.576 243.479 121.324 243.479 120.96L243.675 104.461L243.62 86.5062C243.62 86.1427 243.871 85.8913 244.235 85.8913H253.028C253.364 85.8913 253.643 86.1427 253.643 86.5062L253.447 90.3938C255.884 87.2613 259.972 85.0521 264.956 85.0521C272.488 85.0521 277.332 90.1981 277.332 98.9232V106.418L277.528 120.989C277.528 121.352 277.276 121.604 276.912 121.604H267.644C267.308 121.604 267.028 121.352 267.028 120.989L267.168 106.418V99.0633C267.168 95.1757 264.9 92.6867 261.764 92.6867C258.04 92.6867 254.036 96.1547 254.036 103.789V106.418L254.176 120.989C254.176 121.352 253.924 121.604 253.56 121.604H244.152L244.095 121.576Z" fill="#040404"/>
<path d="M45.3498 64.1888C44.3418 63.6574 43.5297 62.7625 43.0537 61.6159C42.0457 59.0431 43.3337 56.1346 45.9097 55.1278L90.4582 37.7329H90.4862C92.4464 36.9779 94.2663 37.4533 95.6104 38.544V38.572C96.1985 39.0473 96.6462 39.6346 96.9545 40.2779L96.9826 40.3058C97.2904 40.949 97.4864 41.7041 97.4864 42.4872C97.5145 44.1931 96.7585 45.927 94.9381 46.9897L94.9105 47.0177L72.0621 60.3015L89.8982 55.2956C91.7742 54.7642 93.4261 55.2956 94.6584 56.3583C95.2464 56.8617 95.7503 57.5329 96.0586 58.288C96.3383 58.9871 96.4782 59.7702 96.4501 60.5253V60.5532C96.3383 62.1752 95.5542 63.7413 93.8462 64.6922L66.154 80.3809L100.09 75.6549C102.022 75.3752 103.59 76.1303 104.683 77.3606C105.215 77.976 105.578 78.675 105.775 79.4025L105.803 79.4581C105.999 80.1852 106.027 80.9683 105.886 81.7234L105.858 81.8075C105.522 83.3733 104.542 84.7998 102.722 85.5269H102.694L78.5861 95.1192L89.6741 94.1123C91.2703 93.9726 92.6425 94.5319 93.6502 95.4827C94.2944 96.0981 94.7702 96.8532 95.0223 97.6639L95.0504 97.72C95.3026 98.5592 95.3582 99.454 95.1622 100.321C94.8825 101.663 94.0984 102.894 92.6981 103.705V103.677L47.0578 129.881C44.6497 131.251 41.5977 130.44 40.2257 128.035C38.8537 125.63 39.6657 122.582 42.0737 121.211L68.366 106.11L45.9657 108.179C44.0897 108.375 42.5777 107.592 41.5697 106.418L41.5417 106.389C41.0377 105.774 40.6457 105.047 40.4777 104.264C40.3097 103.509 40.2817 102.67 40.4777 101.887V101.859C40.8417 100.321 41.8497 98.9783 43.5577 98.3073H43.5857L61.5339 91.176L42.2137 93.8609C40.5337 94.0842 39.1337 93.5249 38.0697 92.5465L38.0417 92.5184C37.4257 91.9591 36.9496 91.2321 36.6696 90.449C36.3896 89.6378 36.3056 88.743 36.4456 87.8758V87.8482C36.6977 86.4217 37.5097 85.1073 38.9657 84.2685H38.9937L54.0578 75.7388L37.9297 80.2693H37.9017C36.0816 80.7725 34.4296 80.2693 33.1976 79.2343C32.5816 78.731 32.1056 78.0601 31.7976 77.3048C31.4896 76.6057 31.3496 75.7947 31.4056 74.9837V74.9557C31.5176 73.3616 32.3016 71.7955 33.9816 70.8167L45.3777 64.1888H45.3498Z" fill="url(#paint0_linear_9_36)"/>
</g>
<defs>
<linearGradient id="paint0_linear_9_36" x1="68.6838" y1="37.3652" x2="68.6838" y2="130.546" gradientUnits="userSpaceOnUse">
<stop/>
</linearGradient>
<clipPath id="clip0_9_36">
<rect width="348" height="102" fill="white" transform="translate(31 29)"/>
</clipPath>
</defs>
</svg>
